<svg version="1.1" id="Layer_1" xmlns="http://www.w3.org/2000/svg" xmlns:xlink="http://www.w3.org/1999/xlink" x="0px" y="0px"
	 width="100%" viewBox="0 0 180 180" enable-background="new 0 0 180 180" xml:space="preserve">
<path fill="#000000" opacity="1.000000" stroke="none" 
	d="
M126.000000,181.000000 
	C84.000000,181.000000 42.500004,181.000000 1.000005,181.000000 
	C1.000004,121.000008 1.000004,61.000011 1.000002,1.000014 
	C60.999989,1.000009 120.999977,1.000009 180.999969,1.000005 
	C180.999985,60.999985 180.999985,120.999969 181.000000,180.999969 
	C162.833328,181.000000 144.666672,181.000000 126.000000,181.000000 
M104.327255,74.082176 
	C104.454727,75.447624 104.095406,77.174347 104.794136,78.115822 
	C107.781693,82.141243 111.740128,85.578171 114.086990,89.910866 
	C116.566963,94.489311 119.997009,99.613083 115.484566,105.198784 
	C114.875626,105.952553 114.996025,107.433098 115.052574,108.563408 
	C115.315811,113.824188 115.612495,119.085030 116.021324,124.336197 
	C116.321175,128.187668 116.813293,132.024185 117.233719,135.999756 
	C126.335182,135.999756 134.820923,135.844772 143.296616,136.069427 
	C147.154739,136.171692 148.085724,134.605743 148.058746,131.045410 
	C147.926208,113.563606 148.016113,96.080185 147.959793,78.597549 
	C147.955887,77.382706 147.402756,76.169632 146.589111,74.251183 
	C132.746765,74.226707 118.904411,74.202225 104.327255,74.082176 
M46.503086,103.000252 
	C66.000648,103.000252 85.498520,103.055161 104.995453,102.945358 
	C108.186913,102.927383 111.374275,102.183586 114.563530,101.775246 
	C113.724579,99.087746 112.883842,96.400787 112.051247,93.711327 
	C112.003212,93.556183 112.053032,93.370514 112.004051,93.215935 
	C107.925804,80.346626 97.924515,73.653419 85.946022,70.248566 
	C77.893524,67.959656 69.470772,67.886070 60.745239,69.716309 
	C45.235310,72.969604 33.956154,83.690331 29.686832,98.798904 
	C28.832977,101.820580 29.891460,103.091393 33.007607,103.021935 
	C37.171673,102.929146 41.339386,102.999794 46.503086,103.000252 
M60.500046,150.000565 
	C73.328041,150.000565 86.159828,149.817490 98.982292,150.083801 
	C104.724594,150.203064 109.919182,150.173141 112.171204,143.585205 
	C112.833389,141.648087 114.794960,138.857712 114.153473,138.047104 
	C112.885597,136.444977 110.231812,135.168137 108.124649,135.127548 
	C94.968346,134.874176 81.804749,134.999207 68.643562,134.999542 
	C57.481548,134.999847 46.319523,134.993057 35.157528,135.006760 
	C31.859262,135.010803 29.230211,135.933029 29.638105,139.964722 
	C30.067493,144.208862 36.676247,149.972473 41.007828,149.992767 
	C47.171791,150.021652 53.335991,150.000397 60.500046,150.000565 
M150.021484,71.925644 
	C150.667908,71.064758 151.834076,70.226624 151.872894,69.339149 
	C152.065506,64.936974 151.960724,60.521786 151.960724,55.664467 
	C145.602249,55.664467 139.884827,55.664467 134.233627,55.664467 
	C133.686829,46.513710 133.697205,46.548328 142.125137,44.022781 
	C143.965759,43.471210 145.824203,42.777195 147.462357,41.795048 
	C150.596146,39.916214 151.158081,36.547966 149.204803,34.161583 
	C147.982574,32.668335 144.634491,32.604023 142.217743,32.515751 
	C140.758698,32.462463 139.282059,33.667107 137.769531,34.176510 
	C127.976196,37.474792 124.074730,41.722225 124.109108,50.483849 
	C124.126656,54.956867 122.695053,56.291100 118.373245,56.079369 
	C111.989708,55.766636 105.579491,55.998577 98.999481,55.998577 
	C98.999481,59.866211 99.277405,62.887016 98.937096,65.836494 
	C98.366203,70.784508 100.615196,72.115974 105.179619,72.061752 
	C119.814369,71.887894 134.452393,71.989502 150.021484,71.925644 
M57.500050,108.000412 
	C51.171566,108.000481 44.843010,107.981857 38.514622,108.006737 
	C33.747360,108.025482 31.976940,109.808182 32.001610,114.467133 
	C32.024837,118.853745 34.160591,120.983200 38.774380,120.988503 
	C61.257080,121.014366 83.739845,121.013527 106.222542,120.988815 
	C110.780304,120.983810 113.931656,118.004158 113.856400,113.942833 
	C113.785362,110.109886 111.196632,108.007568 106.463173,108.004494 
	C90.475464,107.994110 74.487732,108.000465 57.500050,108.000412 
M53.960781,126.023232 
	C53.107830,125.660339 52.223217,125.357178 51.407196,124.924622 
	C46.959343,122.566872 42.305878,121.877739 37.748207,124.184052 
	C34.101963,126.029144 31.647762,128.980560 32.213608,133.752441 
	C35.781158,133.934586 39.075203,135.068756 41.280296,130.515335 
	C42.665352,127.655251 45.569435,128.625916 47.380482,130.977341 
	C50.566528,135.114014 56.068123,135.215302 59.454838,131.095596 
	C61.847668,128.184891 64.471298,128.309189 66.691589,131.438461 
	C69.113472,134.851837 74.631027,135.067001 77.135849,131.845764 
	C80.135391,127.988335 82.286423,127.993698 85.344070,131.866241 
	C87.964943,135.185623 93.769127,134.741318 96.463539,131.146332 
	C98.166824,128.873749 101.108597,127.468864 102.541489,130.360397 
	C104.859947,135.039017 108.283440,133.895020 111.841515,133.796097 
	C111.583122,123.659706 102.145485,120.792442 93.146843,124.331169 
	C91.731049,124.887932 89.647682,125.362740 88.508675,124.730408 
	C83.348351,121.865555 78.482803,122.461388 73.477470,124.952309 
	C72.687157,125.345612 71.356079,125.385841 70.593666,124.984299 
	C65.049149,122.064217 59.645702,122.125839 53.960781,126.023232 
z"/>
<path fill="#D73F09" opacity="1.000000" stroke="none" 
	d="
M46.004311,103.000252 
	C41.339386,102.999794 37.171673,102.929146 33.007607,103.021935 
	C29.891460,103.091393 28.832977,101.820580 29.686832,98.798904 
	C33.956154,83.690331 45.235310,72.969604 60.745239,69.716309 
	C69.470772,67.886070 77.893524,67.959656 85.946022,70.248566 
	C97.924515,73.653419 107.925804,80.346626 112.004051,93.215935 
	C112.053032,93.370514 112.003212,93.556183 112.051247,93.711327 
	C112.883842,96.400787 113.724579,99.087746 114.563530,101.775246 
	C111.374275,102.183586 108.186913,102.927383 104.995453,102.945358 
	C85.498520,103.055161 66.000648,103.000252 46.004311,103.000252 
z"/>
<path fill="#D73F09" opacity="1.000000" stroke="none" 
	d="
M147.105042,74.955742 
	C147.402756,76.169632 147.955887,77.382706 147.959793,78.597549 
	C148.016113,96.080185 147.926208,113.563606 148.058746,131.045410 
	C148.085724,134.605743 147.154739,136.171692 143.296616,136.069427 
	C134.820923,135.844772 126.335182,135.999756 117.233719,135.999756 
	C116.813293,132.024185 116.321175,128.187668 116.021324,124.336197 
	C115.612495,119.085030 115.315811,113.824188 115.052574,108.563408 
	C114.996025,107.433098 114.875626,105.952553 115.484566,105.198784 
	C119.997009,99.613083 116.566963,94.489311 114.086990,89.910866 
	C111.740128,85.578171 107.781693,82.141243 104.794136,78.115822 
	C104.095406,77.174347 104.454727,75.447624 105.074615,74.271088 
	C119.582985,74.625252 133.344009,74.790497 147.105042,74.955742 
z"/>
<path fill="#D73F09" opacity="1.000000" stroke="none" 
	d="
M60.000069,150.000565 
	C53.335991,150.000397 47.171791,150.021652 41.007828,149.992767 
	C36.676247,149.972473 30.067493,144.208862 29.638105,139.964722 
	C29.230211,135.933029 31.859262,135.010803 35.157528,135.006760 
	C46.319523,134.993057 57.481548,134.999847 68.643562,134.999542 
	C81.804749,134.999207 94.968346,134.874176 108.124649,135.127548 
	C110.231812,135.168137 112.885597,136.444977 114.153473,138.047104 
	C114.794960,138.857712 112.833389,141.648087 112.171204,143.585205 
	C109.919182,150.173141 104.724594,150.203064 98.982292,150.083801 
	C86.159828,149.817490 73.328041,150.000565 60.000069,150.000565 
z"/>
<path fill="#D73F09" opacity="1.000000" stroke="none" 
	d="
M149.555328,71.955231 
	C134.452393,71.989502 119.814369,71.887894 105.179619,72.061752 
	C100.615196,72.115974 98.366203,70.784508 98.937096,65.836494 
	C99.277405,62.887016 98.999481,59.866211 98.999481,55.998577 
	C105.579491,55.998577 111.989708,55.766636 118.373245,56.079369 
	C122.695053,56.291100 124.126656,54.956867 124.109108,50.483849 
	C124.074730,41.722225 127.976196,37.474792 137.769531,34.176510 
	C139.282059,33.667107 140.758698,32.462463 142.217743,32.515751 
	C144.634491,32.604023 147.982574,32.668335 149.204803,34.161583 
	C151.158081,36.547966 150.596146,39.916214 147.462357,41.795048 
	C145.824203,42.777195 143.965759,43.471210 142.125137,44.022781 
	C133.697205,46.548328 133.686829,46.513710 134.233627,55.664467 
	C139.884827,55.664467 145.602249,55.664467 151.960724,55.664467 
	C151.960724,60.521786 152.065506,64.936974 151.872894,69.339149 
	C151.834076,70.226624 150.667908,71.064758 149.555328,71.955231 
z"/>
<path fill="#D73F09" opacity="1.000000" stroke="none" 
	d="
M58.000031,108.000412 
	C74.487732,108.000465 90.475464,107.994110 106.463173,108.004494 
	C111.196632,108.007568 113.785362,110.109886 113.856400,113.942833 
	C113.931656,118.004158 110.780304,120.983810 106.222542,120.988815 
	C83.739845,121.013527 61.257080,121.014366 38.774380,120.988503 
	C34.160591,120.983200 32.024837,118.853745 32.001610,114.467133 
	C31.976940,109.808182 33.747360,108.025482 38.514622,108.006737 
	C44.843010,107.981857 51.171566,108.000481 58.000031,108.000412 
z"/>
<path fill="#D63F09" opacity="1.000000" stroke="none" 
	d="
M54.118107,125.686569 
	C59.645702,122.125839 65.049149,122.064217 70.593666,124.984299 
	C71.356079,125.385841 72.687157,125.345612 73.477470,124.952309 
	C78.482803,122.461388 83.348351,121.865555 88.508675,124.730408 
	C89.647682,125.362740 91.731049,124.887932 93.146843,124.331169 
	C102.145485,120.792442 111.583122,123.659706 111.841515,133.796097 
	C108.283440,133.895020 104.859947,135.039017 102.541489,130.360397 
	C101.108597,127.468864 98.166824,128.873749 96.463539,131.146332 
	C93.769127,134.741318 87.964943,135.185623 85.344070,131.866241 
	C82.286423,127.993698 80.135391,127.988335 77.135849,131.845764 
	C74.631027,135.067001 69.113472,134.851837 66.691589,131.438461 
	C64.471298,128.309189 61.847668,128.184891 59.454838,131.095596 
	C56.068123,135.215302 50.566528,135.114014 47.380482,130.977341 
	C45.569435,128.625916 42.665352,127.655251 41.280296,130.515335 
	C39.075203,135.068756 35.781158,133.934586 32.213608,133.752441 
	C31.647762,128.980560 34.101963,126.029144 37.748207,124.184052 
	C42.305878,121.877739 46.959343,122.566872 51.407196,124.924622 
	C52.223217,125.357178 53.107830,125.660339 54.118107,125.686569 
z"/>
<path fill="#DB4900" opacity="1.000000" stroke="none" 
	d="
M146.847076,74.603462 
	C133.344009,74.790497 119.582985,74.625252 105.442017,74.318878 
	C118.904411,74.202225 132.746765,74.226707 146.847076,74.603462 
z"/>
</svg>